<svg width="673" height="741" viewBox="0 0 673 741" fill="none" xmlns="http://www.w3.org/2000/svg">
<mask id="path-1-outside-1_2_91" maskUnits="userSpaceOnUse" x="0" y="0" width="673" height="741" fill="black">
<rect fill="white" width="673" height="741"/>
<path fill-rule="evenodd" clip-rule="evenodd" d="M343.879 45.7307C341.054 39.4231 332.1 39.4231 329.276 45.7307L42.8845 685.337C39.9223 691.953 44.7628 699.424 52.0114 699.424H227.959C232.912 699.424 237.118 695.799 237.849 690.9L332.621 55.9304C333.299 51.3844 339.855 51.3844 340.533 55.9304L435.305 690.9C436.036 695.799 440.243 699.424 445.195 699.424H621.143C628.391 699.424 633.232 691.953 630.27 685.337L343.879 45.7307Z"/>
</mask>
<path d="M329.276 45.7307L366.696 62.4859V62.4859L329.276 45.7307ZM343.879 45.7307L306.458 62.4859V62.4859L343.879 45.7307ZM332.621 55.9304L373.172 61.9828L373.172 61.9827L332.621 55.9304ZM340.533 55.9304L381.084 49.8781V49.8779L340.533 55.9304ZM435.305 690.9L475.856 684.848L435.305 690.9ZM237.849 690.9L278.4 696.953L237.849 690.9ZM42.8845 685.337L80.3046 702.093L42.8845 685.337ZM366.696 62.4859C355.045 88.5048 318.109 88.5046 306.458 62.4859L381.299 28.9755C364 -9.65842 309.154 -9.65856 291.856 28.9755L366.696 62.4859ZM80.3046 702.093L366.696 62.4859L291.856 28.9754L5.46445 668.582L80.3046 702.093ZM227.959 658.424H52.0114V740.424H227.959V658.424ZM278.4 696.953L373.172 61.9828L292.07 49.8781L197.298 684.848L278.4 696.953ZM373.172 61.9827C366.895 104.036 306.259 104.032 299.982 61.9829L381.084 49.8779C373.451 -1.26284 299.703 -1.26678 292.07 49.8782L373.172 61.9827ZM299.982 61.9828L394.754 696.953L475.856 684.848L381.084 49.8781L299.982 61.9828ZM621.143 658.424H445.195V740.424H621.143V658.424ZM306.458 62.4859L592.85 702.093L667.69 668.582L381.299 28.9754L306.458 62.4859ZM394.754 696.953C398.483 721.935 419.936 740.424 445.195 740.424V658.424C460.549 658.424 473.589 669.663 475.856 684.848L394.754 696.953ZM227.959 740.424C253.218 740.424 274.671 721.935 278.4 696.953L197.298 684.848C199.565 669.663 212.605 658.424 227.959 658.424V740.424ZM621.143 740.424C658.11 740.424 682.797 702.322 667.69 668.582L592.85 702.093C583.667 681.584 598.672 658.424 621.143 658.424V740.424ZM5.46445 668.582C-9.64286 702.322 15.0439 740.424 52.0114 740.424V658.424C74.4818 658.424 89.4875 681.584 80.3046 702.093L5.46445 668.582Z" fill="#9CBB8C" mask="url(#path-1-outside-1_2_91)"/>
</svg>
